# xmcd
#
# Track frame offsets:
# 150
# 644
# 17104
# 36791
# 59964
# 86667
# 102619
#
# Disc length: 1673 seconds
#
#
# Revision: 0
# Processed by: cddbd v1.5PL3 Copyright (c) Steve Scherf et al.
# Submitted via: FreeRIP 2.53 
#
DISCID=5a068707
DTITLE=Jeff J. J. Johnson - Mean Mean City
DYEAR=1997
DGENRE=Blues
TTITLE0=Blank
TTITLE1=Burning Love
TTITLE2=I'll Be There for You
TTITLE3=Mean Mean City
TTITLE4=Stormy Monday Blues
TTITLE5=Baby Come My Way
TTITLE6=Comin' Home
EXTD=
EXTT0=
EXTT1=
EXTT2=
EXTT3=
EXTT4=
EXTT5=
EXTT6=
PLAYORDER=
